<svg version="1.2" xmlns="http://www.w3.org/2000/svg" viewBox="0 0 1500 500" width="1500" height="500">
	<title>New Project</title>
	<style>
		.s0 { fill: #ffffff } 
	</style>
	<path id="KRYPTO." class="s0" aria-label="KRYPTO."  d="m108.5 270.7l-36.5 38.1-2.9-59.8 107.2-113h57.6l-96.6 104zm-31.4 89.3h-51.5v-224h51.5zm162.2 0h-60.4l-79.7-97.6 33.9-36.8zm74.9 0h-51.9v-224h97q30.1 0 51.8 9.9 21.8 9.6 33.6 27.8 11.9 18.3 11.9 43.6 0 24.9-11.9 43.2-11.8 17.9-33.6 27.5-21.7 9.6-51.8 9.6h-68.2l23.1-22.7zm146.5 0h-56l-56-81.3h55.4zm-146.6-206.4v127l-23-24.3h65.3q24 0 35.8-10.2 11.9-10.6 11.9-28.8 0-18.6-11.9-28.8-11.8-10.3-35.8-10.3h-65.3zm287.7 206.4h-51.9v-91.5l11.9 31.4-98.6-163.9h55.1l75.5 125.8h-31.7l75.8-125.8h50.9l-98.5 163.9 11.5-31.4zm158.4 0h-51.9v-224h97q30.1 0 51.8 9.9 21.8 9.6 33.6 27.9 11.9 18.2 11.9 43.5 0 24.9-11.9 43.2-11.8 18.2-33.6 28.1-21.7 9.6-51.8 9.6h-68.2l23.1-23.3zm0-206.4v127l-23.1-24.6h65.3q24 0 35.9-10.3 11.8-10.2 11.8-28.4 0-18.6-11.8-28.8-11.9-10.3-35.9-10.3h-65.3zm271.4 206.4h-51.8v-181.7h-71.7v-42.3h195.2v42.3h-71.7zm205.1 3.8q-26.5 0-49.3-8.6-22.4-8.7-39-24.4-16.3-15.6-25.6-36.8-9-21.1-9-46 0-25 9-46.1 9.3-21.1 25.9-36.8 16.7-15.7 39.1-24.3 22.4-8.7 48.6-8.7 26.6 0 48.6 8.7 22.4 8.6 38.8 24.3 16.6 15.7 25.9 36.8 9.3 20.8 9.3 46.1 0 24.9-9.3 46.4-9.3 21.1-25.9 36.8-16.4 15.3-38.8 24-22 8.6-48.3 8.6zm-0.3-44.2q15 0 27.5-5.1 12.8-5.1 22.4-14.7 9.6-9.6 14.7-22.7 5.5-13.1 5.5-29.1 0-16-5.5-29.2-5.1-13.1-14.7-22.7-9.3-9.6-22.1-14.7-12.8-5.1-27.8-5.1-15 0-27.8 5.1-12.5 5.1-22.1 14.7-9.6 9.6-15.1 22.7-5.1 13.2-5.1 29.2 0 15.6 5.1 29.1 5.5 13.1 14.8 22.7 9.6 9.6 22.4 14.7 12.8 5.1 27.8 5.1zm204.5 46.9c18 0 33-14 33-34.5 0-21-15-35.5-33-35.5-18 0-33 14.5-33 35.5 0 20.5 15 34.5 33 34.5z"/>
</svg>